<?xml version="1.0"?>
<svg xmlns="http://www.w3.org/2000/svg" xmlns:xlink="http://www.w3.org/1999/xlink" version="1.1" id="Layer_1" x="0px" y="0px" viewBox="0 0 512 512" style="enable-background:new 0 0 512 512;" xml:space="preserve" width="512px" height="512px" class=""><g><path style="fill:#000000" d="M322.581,109.883h-47.584c-3.692,0-7.019,2.223-8.432,5.635c-1.413,3.411-0.632,7.336,1.979,9.946  l59.612,59.612L322.581,109.883z" data-original="#FF9212" class="active-path" data-old_color="#FF9212"/><g>
	<path style="fill:#000000" d="M170.119,341.199L46.025,465.305H0l151.621-151.621C157,323.408,163.182,332.608,170.119,341.199z" data-original="#FFD608" class="" data-old_color="#FFD608"/>
	<path style="fill:#000000" d="M330.764,364.395c-52.658,0-120.603-46.33-124.051-105.803l92.002-91.99l5.476-5.488   c-3.967-9.699-6.17-20.311-6.17-31.434c0-3.614,0.231-7.18,0.681-10.673c5.233-40.793,40.087-72.312,82.303-72.312   c68.904,0,121.83,64.523,129.911,150.928C510.917,197.622,454.365,364.395,330.764,364.395z" data-original="#FFD608" class="" data-old_color="#FFD608"/>
</g><path style="fill:#000000" d="M510.917,197.622c0.718,7.582,1.083,15.334,1.083,23.22c0,106.119-86.015,192.134-192.134,192.134  c-60.544,0-114.54-28.002-149.747-71.776c-6.937-8.592-13.119-17.792-18.498-27.515l55.092-55.092  c15.82,47.34,60.495,81.463,113.153,81.463c65.874,0,119.262-53.388,119.262-119.262c0-7.922-0.767-15.662-2.251-23.171  L510.917,197.622L510.917,197.622z" data-original="#FFE76D" class="" data-old_color="#FFE76D"/><path style="fill:#FFFFFF" d="M361.097,102.894c8.884,0,16.1,7.217,16.1,16.113s-7.217,16.1-16.1,16.1  c-8.896,0-16.113-7.204-16.113-16.1S352.201,102.894,361.097,102.894z" data-original="#945136" class="" data-old_color="#945136"/></g> </svg>
