<svg width="181" height="58" viewBox="0 0 181 58" fill="none" xmlns="http://www.w3.org/2000/svg">
<path d="M30.242 17.3015H25.781C25.4348 17.3015 25.1229 17.51 24.9905 17.8298C24.858 18.1496 24.9312 18.5176 25.176 18.7623L30.7646 24.3509L30.242 17.3015Z" fill="black"/>
<path d="M15.9487 38.9874L4.31484 50.6223H0L14.2145 36.4079C14.7188 37.3195 15.2983 38.182 15.9487 38.9874Z" fill="black"/>
<path d="M31.0091 41.162C26.0724 41.162 19.7026 36.8186 19.3793 31.243L28.0045 22.6189L28.5179 22.1044C28.146 21.1952 27.9395 20.2003 27.9395 19.1575C27.9395 18.8187 27.9611 18.4844 28.0033 18.1569C28.4939 14.3326 31.7615 11.3777 35.7192 11.3777C42.179 11.3777 47.1408 17.4267 47.8984 25.5272C47.8985 25.5271 42.5967 41.162 31.0091 41.162Z" fill="black"/>
<path d="M47.8985 25.527C47.9658 26.2379 48 26.9646 48 27.7039C48 37.6526 39.9361 45.7165 29.9874 45.7165C24.3114 45.7165 19.2493 43.0913 15.9487 38.9875C15.2983 38.182 14.7188 37.3195 14.2145 36.408L19.3794 31.2431C20.8625 35.6812 25.0508 38.8802 29.9874 38.8802C36.1631 38.8802 41.1683 33.8751 41.1683 27.6994C41.1683 26.9567 41.0964 26.2311 40.9572 25.5271L47.8985 25.527Z" fill="black"/>
<path d="M33.8529 16.6463C34.6858 16.6463 35.3623 17.3229 35.3623 18.1569C35.3623 18.9909 34.6857 19.6663 33.8529 19.6663C33.0189 19.6663 32.3423 18.9909 32.3423 18.1569C32.3423 17.3229 33.0189 16.6463 33.8529 16.6463Z" fill="white"/>
<path d="M56.688 11.632H62.976V21.952L62.592 25.312H62.976C63.552 24.32 64.448 23.472 65.664 22.768C66.88 22.064 68.384 21.712 70.176 21.712C71.68 21.712 73.104 22.032 74.448 22.672C75.824 23.28 77.024 24.144 78.048 25.264C79.104 26.352 79.936 27.664 80.544 29.2C81.152 30.736 81.456 32.416 81.456 34.24C81.456 36.064 81.152 37.744 80.544 39.28C79.936 40.816 79.104 42.144 78.048 43.264C77.024 44.352 75.824 45.216 74.448 45.856C73.104 46.464 71.68 46.768 70.176 46.768C68.384 46.768 66.88 46.416 65.664 45.712C64.448 45.008 63.552 44.16 62.976 43.168H62.592V46H56.688V11.632ZM68.88 40.96C69.712 40.96 70.496 40.8 71.232 40.48C72 40.16 72.672 39.712 73.248 39.136C73.824 38.56 74.288 37.856 74.64 37.024C74.992 36.192 75.168 35.264 75.168 34.24C75.168 33.216 74.992 32.288 74.64 31.456C74.288 30.624 73.824 29.92 73.248 29.344C72.672 28.768 72 28.32 71.232 28C70.496 27.68 69.712 27.52 68.88 27.52C68.048 27.52 67.248 27.68 66.48 28C65.744 28.288 65.088 28.72 64.512 29.296C63.936 29.872 63.472 30.576 63.12 31.408C62.768 32.24 62.592 33.184 62.592 34.24C62.592 35.296 62.768 36.24 63.12 37.072C63.472 37.904 63.936 38.608 64.512 39.184C65.088 39.76 65.744 40.208 66.48 40.528C67.248 40.816 68.048 40.96 68.88 40.96ZM88.7389 19.072C88.1949 19.072 87.6669 18.976 87.1549 18.784C86.6749 18.56 86.2429 18.272 85.8589 17.92C85.5069 17.536 85.2189 17.104 84.9949 16.624C84.8029 16.144 84.7069 15.616 84.7069 15.04C84.7069 14.464 84.8029 13.936 84.9949 13.456C85.2189 12.976 85.5069 12.56 85.8589 12.208C86.2429 11.824 86.6749 11.536 87.1549 11.344C87.6669 11.12 88.1949 11.008 88.7389 11.008C89.8589 11.008 90.8189 11.408 91.6189 12.208C92.4189 12.976 92.8189 13.92 92.8189 15.04C92.8189 16.16 92.4189 17.12 91.6189 17.92C90.8189 18.688 89.8589 19.072 88.7389 19.072ZM85.6189 46V22.48H91.9069V46H85.6189ZM97.6568 22.48H103.561V25.744H103.945C104.233 25.168 104.617 24.64 105.097 24.16C105.577 23.68 106.105 23.264 106.681 22.912C107.289 22.56 107.929 22.288 108.601 22.096C109.305 21.904 109.993 21.808 110.665 21.808C111.497 21.808 112.201 21.888 112.777 22.048C113.385 22.208 113.897 22.416 114.313 22.672L112.633 28.384C112.249 28.192 111.817 28.048 111.337 27.952C110.889 27.824 110.329 27.76 109.657 27.76C108.793 27.76 108.009 27.936 107.305 28.288C106.601 28.608 105.993 29.072 105.481 29.68C105.001 30.288 104.617 31.008 104.329 31.84C104.073 32.64 103.945 33.52 103.945 34.48V46H97.6568V22.48ZM133.271 43.168H132.887C132.311 44.16 131.415 45.008 130.199 45.712C128.983 46.416 127.479 46.768 125.687 46.768C124.183 46.768 122.743 46.464 121.367 45.856C120.023 45.216 118.823 44.352 117.767 43.264C116.743 42.144 115.927 40.816 115.319 39.28C114.711 37.744 114.407 36.064 114.407 34.24C114.407 32.416 114.711 30.736 115.319 29.2C115.927 27.664 116.743 26.352 117.767 25.264C118.823 24.144 120.023 23.28 121.367 22.672C122.743 22.032 124.183 21.712 125.687 21.712C127.479 21.712 128.983 22.064 130.199 22.768C131.415 23.472 132.311 24.32 132.887 25.312H133.271L132.887 21.952V11.632H139.175V46H133.271V43.168ZM126.983 40.96C127.815 40.96 128.599 40.816 129.335 40.528C130.103 40.208 130.775 39.76 131.351 39.184C131.927 38.608 132.391 37.904 132.743 37.072C133.095 36.24 133.271 35.296 133.271 34.24C133.271 33.184 133.095 32.24 132.743 31.408C132.391 30.576 131.927 29.872 131.351 29.296C130.775 28.72 130.103 28.288 129.335 28C128.599 27.68 127.815 27.52 126.983 27.52C126.151 27.52 125.351 27.68 124.583 28C123.847 28.32 123.191 28.768 122.615 29.344C122.039 29.92 121.575 30.624 121.223 31.456C120.871 32.288 120.695 33.216 120.695 34.24C120.695 35.264 120.871 36.192 121.223 37.024C121.575 37.856 122.039 38.56 122.615 39.136C123.191 39.712 123.847 40.16 124.583 40.48C125.351 40.8 126.151 40.96 126.983 40.96ZM148.036 19.072C147.492 19.072 146.964 18.976 146.452 18.784C145.972 18.56 145.54 18.272 145.156 17.92C144.804 17.536 144.516 17.104 144.292 16.624C144.1 16.144 144.004 15.616 144.004 15.04C144.004 14.464 144.1 13.936 144.292 13.456C144.516 12.976 144.804 12.56 145.156 12.208C145.54 11.824 145.972 11.536 146.452 11.344C146.964 11.12 147.492 11.008 148.036 11.008C149.156 11.008 150.116 11.408 150.916 12.208C151.716 12.976 152.116 13.92 152.116 15.04C152.116 16.16 151.716 17.12 150.916 17.92C150.116 18.688 149.156 19.072 148.036 19.072ZM144.916 46V22.48H151.204V46H144.916ZM178.991 40.336C177.903 42.256 176.431 43.808 174.575 44.992C172.751 46.176 170.511 46.768 167.855 46.768C166.063 46.768 164.399 46.464 162.863 45.856C161.359 45.216 160.047 44.336 158.927 43.216C157.807 42.096 156.927 40.784 156.287 39.28C155.679 37.744 155.375 36.064 155.375 34.24C155.375 32.544 155.679 30.944 156.287 29.44C156.895 27.904 157.743 26.576 158.831 25.456C159.919 24.304 161.199 23.392 162.671 22.72C164.175 22.048 165.823 21.712 167.615 21.712C169.503 21.712 171.183 22.032 172.655 22.672C174.127 23.28 175.359 24.144 176.351 25.264C177.343 26.352 178.095 27.648 178.607 29.152C179.119 30.656 179.375 32.288 179.375 34.048C179.375 34.272 179.375 34.464 179.375 34.624C179.343 34.816 179.327 34.992 179.327 35.152C179.295 35.312 179.279 35.488 179.279 35.68H161.567C161.695 36.64 161.951 37.472 162.335 38.176C162.751 38.848 163.247 39.424 163.823 39.904C164.431 40.352 165.087 40.688 165.791 40.912C166.495 41.104 167.215 41.2 167.951 41.2C169.391 41.2 170.575 40.88 171.503 40.24C172.463 39.568 173.215 38.736 173.759 37.744L178.991 40.336ZM173.279 31.216C173.247 30.8 173.103 30.336 172.847 29.824C172.623 29.312 172.271 28.832 171.791 28.384C171.343 27.936 170.767 27.568 170.063 27.28C169.391 26.992 168.575 26.848 167.615 26.848C166.271 26.848 165.087 27.232 164.063 28C163.039 28.768 162.319 29.84 161.903 31.216H173.279Z" fill="black"/>
</svg>
