<?xml version="1.0"?>
<svg xmlns="http://www.w3.org/2000/svg" xmlns:xlink="http://www.w3.org/1999/xlink" version="1.1" id="Capa_1" x="0px" y="0px" viewBox="0 0 300.193 300.193" style="enable-background:new 0 0 300.193 300.193;" xml:space="preserve" width="512px" height="512px"><g><g>
	<polygon points="252.199,71.316 300.193,23.322 277.566,0.695 229.572,48.689 205.979,25.097 183.097,117.597 276.616,95.734  " data-original="#000000" class="active-path" data-old_color="#000000" fill="#000000"/>
	<polygon points="70.621,48.689 22.627,0.695 0,23.322 47.994,71.316 23.575,95.734 117.097,117.597 94.214,25.097  " data-original="#000000" class="active-path" data-old_color="#000000" fill="#000000"/>
	<polygon points="276.616,204.459 183.097,182.597 205.979,275.097 229.572,251.504 277.566,299.498 300.193,276.871    252.199,228.877  " data-original="#000000" class="active-path" data-old_color="#000000" fill="#000000"/>
	<polygon points="47.994,228.877 0,276.871 22.627,299.498 70.621,251.504 94.214,275.097 117.097,182.597 23.575,204.459  " data-original="#000000" class="active-path" data-old_color="#000000" fill="#000000"/>
</g></g> </svg>
