<?xml version="1.0" standalone="no"?>
<!DOCTYPE svg PUBLIC "-//W3C//DTD SVG 20010904//EN"
 "http://www.w3.org/TR/2001/REC-SVG-20010904/DTD/svg10.dtd">
<svg version="1.0" xmlns="http://www.w3.org/2000/svg"
 width="700.000000pt" height="700.000000pt" viewBox="0 0 700.000000 700.000000"
 preserveAspectRatio="xMidYMid meet">
<metadata>
Created by potrace 1.11, written by Peter Selinger 2001-2013
</metadata>
<g transform="translate(0.000000,700.000000) scale(0.100000,-0.100000)"
fill="#000000" stroke="none">
<path d="M5080 6357 c-3 -3 -25 -7 -50 -10 -164 -21 -388 -119 -523 -228 -178
-145 -310 -335 -379 -549 -26 -81 4 -72 -242 -71 -134 0 -154 -2 -187 -21 -36
-20 -54 -47 -63 -94 -9 -47 35 -102 273 -338 133 -132 241 -244 241 -249 0 -5
-932 -941 -2071 -2079 -1138 -1139 -2068 -2072 -2066 -2075 3 -2 143 -5 311
-5 l305 0 849 849 848 849 40 -49 c67 -84 250 -263 357 -348 262 -212 574
-378 882 -470 55 -17 107 -32 115 -34 65 -15 213 -45 250 -51 25 -3 52 -8 60
-9 100 -18 396 -25 547 -13 105 8 302 37 351 52 9 3 31 8 48 11 189 31 571
190 784 325 250 158 529 411 693 627 255 336 418 695 496 1093 36 185 43 260
46 480 3 280 -8 408 -56 659 -80 421 -247 802 -484 1106 -68 87 -194 218 -265
277 -25 20 -58 47 -75 61 -52 42 -197 129 -280 168 -194 91 -358 128 -585 135
-91 3 -168 3 -170 1z"/>
</g>
</svg>
